<svg width="12" height="12" viewBox="0 0 12 12" fill="none" xmlns="http://www.w3.org/2000/svg">
<path d="M7.28845 5.08358C7.28845 5.29835 7.44554 5.47247 7.63932 5.47247C7.83311 5.47247 7.9902 5.29835 7.9902 5.08358V4.50024H10.2709C10.6585 4.50024 10.9727 4.84847 10.9727 5.27802V6.88333C10.6546 7.1293 10.4463 7.53776 10.4463 8.00024C10.4463 8.46269 10.6546 8.87099 10.9727 9.11697V10.7225C10.9727 11.152 10.6585 11.5002 10.2709 11.5002H7.9902V10.9169C7.9902 10.7021 7.83311 10.528 7.63932 10.528C7.44554 10.528 7.28845 10.7021 7.28845 10.9169V11.5002H1.67441C1.28684 11.5002 0.972656 11.152 0.972656 10.7225V9.11697C1.29071 8.87099 1.49897 8.46269 1.49897 8.00024C1.49897 7.53776 1.29076 7.1293 0.972656 6.88333V5.27802C0.972656 4.84847 1.28684 4.50024 1.67441 4.50024H7.28845V5.08358ZM4.82357 5.84711C4.77103 5.66804 4.54238 5.66806 4.48982 5.84711L4.10519 7.15904L4.0944 7.18772C4.06475 7.25178 4.00483 7.29328 3.93832 7.29329H2.6938C2.52391 7.29335 2.45324 7.53443 2.59067 7.64516L3.59755 8.45597L3.61897 8.4761C3.66477 8.52716 3.68183 8.60329 3.66129 8.67339L3.27666 9.98513C3.22414 10.1643 3.40918 10.3132 3.54667 10.2026L4.55356 9.39174C4.61504 9.34226 4.69836 9.34224 4.75983 9.39174L5.66341 10.1194L5.76672 10.2026L5.79293 10.2204C5.92635 10.2946 6.08596 10.1531 6.03673 9.98513L5.99716 9.85069L5.6521 8.67339C5.62862 8.59328 5.65435 8.50549 5.71584 8.45597L6.72272 7.64516C6.86009 7.53443 6.78944 7.29338 6.61959 7.29329H5.37507L5.34697 7.29083C5.28285 7.27935 5.22875 7.22913 5.2082 7.15904L4.82357 5.84711ZM9.21827 5.86136C9.02449 5.86136 8.86739 6.03547 8.86739 6.25024V9.75024C8.86739 9.96502 9.02449 10.1391 9.21827 10.1391C9.41205 10.1391 9.56915 9.96502 9.56915 9.75024V6.25024C9.56915 6.03547 9.41205 5.86136 9.21827 5.86136ZM7.63932 8.38913C7.44554 8.38913 7.28845 8.56324 7.28845 8.77802V9.36136C7.28845 9.57613 7.44554 9.75024 7.63932 9.75024C7.83311 9.75024 7.9902 9.57613 7.9902 9.36136V8.77802C7.9902 8.56324 7.83311 8.38913 7.63932 8.38913ZM4.70758 7.33925C4.80153 7.65971 5.07105 7.87663 5.37507 7.87663H5.53971L5.40642 7.98391C5.16047 8.18197 5.05754 8.53313 5.15149 8.8536L5.2022 9.02696L5.06925 8.91987L5.02214 8.88512C4.79797 8.73343 4.51542 8.73345 4.29126 8.88512L4.24414 8.91987L4.11102 9.02696L4.1619 8.8536C4.25583 8.53315 4.15291 8.18197 3.90697 7.98391L3.77368 7.87663H3.93832C4.24232 7.87661 4.51187 7.6597 4.60581 7.33925L4.6567 7.16569L4.70758 7.33925ZM7.63932 6.25024C7.44554 6.25024 7.28845 6.42436 7.28845 6.63913V7.22247C7.28845 7.43724 7.44554 7.61136 7.63932 7.61136C7.83311 7.61136 7.9902 7.43724 7.9902 7.22247V6.63913C7.9902 6.42436 7.83311 6.25024 7.63932 6.25024Z" fill="white"/>
<path d="M6.95898 0.705566C7.25309 0.432231 7.72935 0.432206 8.02344 0.705566L9.12305 1.72705C9.05009 2.10809 9.17163 2.51563 9.48828 2.81006C9.8049 3.10442 10.2426 3.21768 10.6523 3.1499L11.0293 3.50049H8.89844L7.62402 2.31494C7.47695 2.17829 7.23883 2.17823 7.0918 2.31494C6.9448 2.45169 6.94475 2.67334 7.0918 2.81006L7.86035 3.50049H3.99219L4.69531 2.81006L5.09473 3.18115C5.24177 3.31786 5.47989 3.31783 5.62695 3.18115C5.77397 3.04441 5.77399 2.82276 5.62695 2.68604L5.22754 2.31494L6.95898 0.705566Z" fill="white"/>
</svg>
