<svg width="12" height="12" viewBox="0 0 12 12" fill="none" xmlns="http://www.w3.org/2000/svg">
<path d="M5.05945 3.61218C5.32826 4.4994 6.03746 5.19504 6.93269 5.44505L3.22533 8.32454C2.94786 8.54003 2.5575 8.5323 2.28871 8.30608C1.98151 8.04751 1.93449 7.59201 2.18245 7.27619L5.05945 3.61218Z" fill="white"/>
<path d="M9.9751 2.70508C9.9751 3.85563 9.0424 4.78833 7.89185 4.78833C6.7413 4.78833 5.80859 3.85563 5.80859 2.70508C5.80859 1.55453 6.7413 0.621826 7.89185 0.621826C9.0424 0.621826 9.9751 1.55453 9.9751 2.70508Z" fill="white"/>
<path d="M2.83188 8.98718C2.61779 9.15368 2.63467 9.3847 2.73954 9.50862C2.78964 9.56782 2.86469 9.60929 2.96928 9.608C3.078 9.60665 3.24914 9.55755 3.46975 9.37091C3.74308 9.13962 4.03467 9.0252 4.3192 9.02928C4.60339 9.03335 4.84741 9.15555 5.02014 9.33523C5.35401 9.68256 5.45206 10.2966 5.02514 10.7235C4.80079 10.9478 4.6672 11.0815 4.58633 11.1623C4.50534 11.2432 4.47745 11.271 4.46411 11.2844C4.33895 11.4095 4.13607 11.4095 4.0109 11.2844C3.88574 11.1592 3.88574 10.9563 4.0109 10.8312C4.02427 10.8178 4.05262 10.7896 4.13328 10.7089C4.21409 10.6282 4.34761 10.4946 4.57194 10.2703C4.70587 10.1364 4.69782 9.925 4.55801 9.77951C4.49386 9.71278 4.40897 9.6717 4.30997 9.67028C4.21129 9.66888 4.06512 9.70672 3.88383 9.86011C3.58367 10.1141 3.27403 10.2453 2.9771 10.249C2.67605 10.2527 2.42045 10.1239 2.25019 9.92271C1.91433 9.52581 1.93123 8.87544 2.43829 8.48108L2.83188 8.98718Z" fill="white"/>
</svg>
