<svg width="12" height="12" viewBox="0 0 12 12" fill="none" xmlns="http://www.w3.org/2000/svg">
<path d="M8 5C8 3.95424 7.14136 3.03922 6 3.03922C4.85864 3.03922 4 3.95424 4 5C4 6.04576 4.85864 6.96078 6 6.96078V9C3.79086 9 2 7.20914 2 5C2 2.79086 3.79086 1 6 1C8.20914 1 10 2.79086 10 5C10 7.20914 8.20914 9 6 9V6.96078C7.14136 6.96078 8 6.04576 8 5Z" fill="white"/>
<path d="M3.11583 9C3.94652 9.43529 4.93686 9.68811 6.00017 9.68811C7.0633 9.68811 8.05339 9.4353 8.88399 9.00014L9.95401 10.5656C10.0868 10.7599 9.91616 11 9.64525 11H2.35475C2.08385 11 1.9132 10.7599 2.04599 10.5656L3.11583 9Z" fill="white"/>
<path d="M6 4C6.55228 4 7 4.44772 7 5C7 5.55228 6.55228 6 6 6C5.44772 6 5 5.55228 5 5C5 4.88057 5.02094 4.76603 5.05934 4.65986C5.14972 4.72847 5.2624 4.76923 5.38462 4.76923C5.682 4.76923 5.92308 4.52815 5.92308 4.23077C5.92308 4.15127 5.90563 4.07589 5.8747 4.00796C5.91575 4.00283 5.95756 4 6 4Z" fill="white"/>
</svg>
